<?xml version="1.0" encoding="UTF-8" standalone="no"?>
<!DOCTYPE svg PUBLIC "-//W3C//DTD SVG 1.1//EN" "http://www.w3.org/Graphics/SVG/1.1/DTD/svg11.dtd">
<svg width="100%" height="100%" viewBox="0 0 2000 2000" version="1.1" xmlns="http://www.w3.org/2000/svg" xmlns:xlink="http://www.w3.org/1999/xlink" xml:space="preserve" xmlns:serif="http://www.serif.com/" style="fill-rule:evenodd;clip-rule:evenodd;stroke-linejoin:round;stroke-miterlimit:2;">
    <g transform="matrix(1.66667,0,0,3.53996,2.84217e-13,0)">
        <rect x="0" y="0" width="1200" height="564.978" style="fill:rgb(0,5,42);"/>
    </g>
    <g transform="matrix(2.70502,0,0,2.70502,-1975.62,768.332)">
        <g transform="matrix(2.735,0,0,2.735,166.271,-2068.57)">
            <path d="M318.933,812.113L318.933,806.163L321.033,806.163C322.266,806.163 323.216,805.83 323.883,805.163C324.55,804.497 324.883,803.547 324.883,802.313L324.883,774.713L331.583,774.713L331.583,801.913C331.583,804.413 331.2,806.405 330.433,807.888C329.666,809.372 328.483,810.447 326.883,811.113C325.283,811.78 323.183,812.113 320.583,812.113L318.933,812.113ZM320.933,779.913L320.933,774.713L331.583,774.713L331.583,779.913L320.933,779.913ZM327.133,771.263C325.8,771.263 324.808,770.905 324.158,770.188C323.508,769.472 323.183,768.563 323.183,767.463C323.183,766.363 323.508,765.463 324.158,764.763C324.808,764.063 325.8,763.713 327.133,763.713C328.5,763.713 329.508,764.063 330.158,764.763C330.808,765.463 331.133,766.363 331.133,767.463C331.133,768.563 330.808,769.472 330.158,770.188C329.508,770.905 328.5,771.263 327.133,771.263Z" style="fill:white;fill-rule:nonzero;"/>
            <path d="M351.183,802.813C348.783,802.813 346.666,802.43 344.833,801.663C343,800.897 341.45,799.855 340.183,798.538C338.916,797.222 337.958,795.73 337.308,794.063C336.658,792.397 336.333,790.663 336.333,788.863L336.333,787.813C336.333,785.947 336.675,784.172 337.358,782.488C338.041,780.805 339.025,779.305 340.308,777.988C341.591,776.672 343.15,775.638 344.983,774.888C346.816,774.138 348.883,773.763 351.183,773.763C353.483,773.763 355.55,774.138 357.383,774.888C359.216,775.638 360.775,776.672 362.058,777.988C363.341,779.305 364.316,780.805 364.983,782.488C365.65,784.172 365.983,785.947 365.983,787.813L365.983,788.863C365.983,790.663 365.658,792.397 365.008,794.063C364.358,795.73 363.4,797.222 362.133,798.538C360.866,799.855 359.316,800.897 357.483,801.663C355.65,802.43 353.55,802.813 351.183,802.813ZM351.183,796.863C352.883,796.863 354.316,796.488 355.483,795.738C356.65,794.988 357.533,793.972 358.133,792.688C358.733,791.405 359.033,789.947 359.033,788.313C359.033,786.647 358.725,785.172 358.108,783.888C357.491,782.605 356.591,781.588 355.408,780.838C354.225,780.088 352.816,779.713 351.183,779.713C349.55,779.713 348.141,780.088 346.958,780.838C345.775,781.588 344.866,782.605 344.233,783.888C343.6,785.172 343.283,786.647 343.283,788.313C343.283,789.947 343.591,791.405 344.208,792.688C344.825,793.972 345.716,794.988 346.883,795.738C348.05,796.488 349.483,796.863 351.183,796.863Z" style="fill:white;fill-rule:nonzero;"/>
            <path d="M372.133,801.863L372.133,774.713L379.083,774.713L379.083,801.863L372.133,801.863ZM368.333,779.913L368.333,774.713L379.083,774.713L379.083,779.913L368.333,779.913ZM374.683,771.463C373.316,771.463 372.308,771.105 371.658,770.388C371.008,769.672 370.683,768.763 370.683,767.663C370.683,766.563 371.008,765.663 371.658,764.963C372.308,764.263 373.316,763.913 374.683,763.913C376.05,763.913 377.05,764.263 377.683,764.963C378.316,765.663 378.633,766.563 378.633,767.663C378.633,768.763 378.316,769.672 377.683,770.388C377.05,771.105 376.05,771.463 374.683,771.463Z" style="fill:white;fill-rule:nonzero;"/>
            <path d="M395.683,802.713C391.95,802.713 389.025,801.922 386.908,800.338C384.791,798.755 383.683,796.563 383.583,793.763L389.833,793.763C389.933,794.697 390.45,795.547 391.383,796.313C392.316,797.08 393.783,797.463 395.783,797.463C397.45,797.463 398.775,797.163 399.758,796.563C400.741,795.963 401.233,795.147 401.233,794.113C401.233,793.213 400.858,792.497 400.108,791.963C399.358,791.43 398.083,791.08 396.283,790.913L393.883,790.663C390.85,790.33 388.516,789.463 386.883,788.063C385.25,786.663 384.433,784.797 384.433,782.463C384.433,780.597 384.9,779.03 385.833,777.763C386.766,776.497 388.058,775.538 389.708,774.888C391.358,774.238 393.25,773.913 395.383,773.913C398.716,773.913 401.416,774.647 403.483,776.113C405.55,777.58 406.633,779.73 406.733,782.563L400.483,782.563C400.416,781.63 399.95,780.83 399.083,780.163C398.216,779.497 396.966,779.163 395.333,779.163C393.866,779.163 392.733,779.447 391.933,780.013C391.133,780.58 390.733,781.313 390.733,782.213C390.733,783.08 391.058,783.747 391.708,784.213C392.358,784.68 393.416,784.997 394.883,785.163L397.283,785.413C400.483,785.747 402.991,786.63 404.808,788.063C406.625,789.497 407.533,791.43 407.533,793.863C407.533,795.663 407.041,797.222 406.058,798.538C405.075,799.855 403.7,800.88 401.933,801.613C400.166,802.347 398.083,802.713 395.683,802.713Z" style="fill:white;fill-rule:nonzero;"/>
            <path d="M423.833,802.213C421.333,802.213 419.275,801.888 417.658,801.238C416.041,800.588 414.833,799.488 414.033,797.938C413.233,796.388 412.833,794.297 412.833,791.663L412.883,767.063L419.383,767.063L419.333,792.113C419.333,793.447 419.691,794.472 420.408,795.188C421.125,795.905 422.15,796.263 423.483,796.263L427.733,796.263L427.733,802.213L423.833,802.213ZM408.533,779.813L408.533,774.713L427.733,774.713L427.733,779.813L408.533,779.813Z" style="fill:white;fill-rule:nonzero;"/>
        </g>
        <g transform="matrix(-1.28431,-0.740367,0,1.28431,439.494,-620.001)">
            <path d="M-395.711,361.29L-395.711,352.016L-354.9,351.921L-370.986,334.023L-395.711,334.081L-395.711,263.413L-411.205,263.413L-411.205,361.325L-395.711,379.225L-330.497,379.074L-346.583,361.176L-395.711,361.29ZM-418.952,263.413L-434.446,263.413L-434.446,334.477L-418.952,352.376L-418.952,263.413Z" style="fill:rgb(252,138,34);"/>
        </g>
    </g>
</svg>
